# AST/ASF file generated using VICON BodyLanguage
# -----------------------------------------------
:version 1.10
:name VICON
:units
  mass 1.0
  length 0.45
  angle deg
:documentation
   .ast/.asf automatically generated from VICON data using
   VICON BodyBuilder and BodyLanguage model FoxedUp or BRILLIANT.MOD
:root
   order TX TY TZ RX RY RZ
   axis XYZ
   position 0 0 0  
   orientation 0 0 0 
:bonedata
  begin
     id 1 
     name lhipjoint
     direction 0.690799 -0.707083 0.151096 
     length 2.54797 
     axis 0 0 0  XYZ
  end
  begin
     id 2 
     name lfemur
     direction 0.34202 -0.939693 0  
     length 7.21646  
     axis 0 0 20  XYZ
    dof rx ry rz
    limits (-160.0 20.0)
           (-70.0 70.0)
           (-60.0 70.0)
  end
  begin
     id 3 
     name ltibia
     direction 0.34202 -0.939693 0   
     length 8.16759   
     axis 0 0 20   XYZ
    dof rx
    limits (-10.0 170.0)
  end
  begin
     id 4 
     name lfoot
     direction 0.0487203 -0.133858 0.989802   
     length 1.93375   
     axis -90 7.62852e-016 20   XYZ
    dof rx rz
    limits (-45.0 90.0)
           (-70.0 20.0)
  end
  begin
     id 5 
     name ltoes
     direction 1.53453e-011 -4.21783e-011 1   
     length 0.979747   
     axis -90 7.62852e-016 20   XYZ
    dof rx
    limits (-90.0 20.0)
  end
  begin
     id 6 
     name rhipjoint
     direction -0.694693 -0.703425 0.150315   
     length 2.56122  
     axis 0 0 0  XYZ 
  end
  begin
     id 7 
     name rfemur
     direction -0.34202 -0.939693 0   
     length 7.36786   
     axis 0 0 -20   XYZ
    dof rx ry rz
    limits (-160.0 20.0)
           (-70.0 70.0)
           (-70.0 60.0)
  end
  begin
     id 8 
     name rtibia
     direction -0.34202 -0.939693 0   
     length 8.07288   
     axis 0 0 -20   XYZ
    dof rx
    limits (-10.0 170.0)
 end
 begin
     id 9 
     name rfoot
     direction -0.0428397 -0.117701 0.992125   
     length 1.88295  
     axis -90 -7.62852e-016 -20   XYZ
    dof rx rz
    limits (-45.0 90.0)
           (-20.0 70.0)
  end
  begin
     id 10 
     name rtoes
     direction -1.53456e-011 -4.2187e-011 1   
     length 0.955578   
     axis -90 -7.62852e-016 -20   XYZ
    dof rx
    limits (-90.0 20.0)
  end
  begin
     id 11 
     name lowerback
     direction 0.0288145 0.999398 -0.0193241   
     length 1.92149   
     axis 0 0 0   XYZ
    dof rx ry rz
    limits (-20.0 45.0)
           (-30.0 30.0)
           (-30.0 30.0)
  end
  begin
     id 12 
     name upperback
     direction 0.0233784 0.998099 0.0570278   
     length 1.90435   
     axis 0 0 0   XYZ
    dof rx ry rz
    limits (-20.0 45.0)
           (-30.0 30.0)
           (-30.0 30.0)
  end
  begin
     id 13 
     name thorax
     direction 0.0096694 0.997833 0.0650817   
     length 1.9111   
     axis 0 0 0   XYZ
    dof rx ry rz
    limits (-20.0 45.0)
           (-30.0 30.0)
           (-30.0 30.0)
  end
  begin
     id 14 
     name lowerneck
     direction 0.00516803 0.999916 0.0118722   
     length 1.74664   
     axis 0 0 0   XYZ
    dof rx ry rz
    limits (-20.0 45.0)
           (-30.0 30.0)
           (-30.0 30.0)
  end
  begin
     id 15 
     name upperneck
     direction -0.0510851 0.996117 -0.071696   
     length 1.68498   
     axis 0 0 0   XYZ
    dof rx ry rz
    limits (-20.0 45.0)
           (-30.0 30.0)
           (-30.0 30.0)
  end
  begin
     id 16
     name head
     direction -0.019188 0.999436 -0.0275702  
     length 1.83483  
     axis 0 0 0   XYZ
    dof rx ry rz
    limits (-20.0 45.0)
           (-30.0 30.0)
           (-30.0 30.0)
  end
  begin
     id 17 
     name lclavicle
     direction 0.967006 0.248456 -0.0562957  
     length 3.39395  
     axis 0 0 0   XYZ
    dof ry rz
    limits (-20.0 10.0)
           (0.0 20.0)
  end
  begin
     id 18 
     name lhumerus
     direction 1 -4.48962e-011 -5.62711e-019   
     length 5.24318   
     axis 180 -30 -90   XYZ
    dof rx ry rz
    limits (-60.0 90.0)
           (-90.0 90.0)
           (-90.0 90.0)
  end
  begin
     id 19
     name lradius
     direction 1 -4.48966e-011 7.90625e-027   
     length 2.98999   
     axis 180 -30 -90   XYZ
    dof rx
    limits (-10.0 170.0)
  end
  begin
     id 20
     name lwrist
     direction 1 -4.48959e-011 1.61068e-026   
     length 1.49499   
     axis -9.31229e-015 90 90   XYZ
    dof ry
    limits (-180.0 0.0)
 end
  begin
     id 21 
     name lhand
     direction 1 -4.49017e-011 3.22136e-026   
     length 0.726745   
     axis -2.0555e-014 90 90   XYZ
    dof rx rz
    limits (-90.0 90.0)
           (-45.0 45.0)
  end
  begin
     id 22 
     name lfingers
     direction 1 -4.4898e-011 6.44272e-026   
     length 0.58592   
     axis -4.11101e-014 90 90   XYZ
    dof rx
    limits (0.0 90.0)
  end
  begin
     id 23
     name lthumb
     direction 0.707107 -6.34922e-011 0.707107   
     length 0.841268   
     axis -90 45 2.85299e-015   XYZ
    dof rx rz
    limits (-45.0 45.0)
           (-45.0 45.0)
  end
  begin
     id 24 
     name rclavicle
     direction -0.972232 0.230238 0.0419005   
     length 3.40416  
     axis 0 0 0   XYZ 
    dof ry rz
    limits (-10.0 20.0)
           (-20.0 0.0)
  end
  begin
     id 25 
     name rhumerus
     direction -1 -4.48976e-011 2.48487e-027  
     length 5.37045   
     axis 180 30 90   XYZ
    dof rx ry rz
    limits (-90.0 60.0)
           (-90.0 90.0)
           (-90.0 90.0)
  end
  begin
     id 26 
     name rradius
     direction -1 -4.48942e-011 7.87951e-027   
     length 2.92792   
     axis 180 30 90   XYZ
    dof rx
    limits (-10.0 170.0)
  end
  begin
     id 27 
     name rwrist
     direction -1 -4.48969e-011 1.61068e-026   
     length 1.46396   
     axis -9.31229e-015 -90 -90   XYZ
    dof ry
    limits (-180.0 0.0)
  end
  begin
     id 28
     name rhand
     direction -1 -4.49043e-011 3.22136e-026   
     length 0.784497   
     axis -2.0555e-014 -90 -90   XYZ
    dof rx rz
    limits (-90.0 90.0)
           (-45.0 45.0)
  end
  begin
     id 29
     name rfingers
     direction -1 -4.48823e-011 6.44272e-026   
     length 0.632482   
     axis -4.11101e-014 -90 -90   XYZ
    dof rx
    limits (0.0 90.0)
  end
  begin
     id 30
     name rthumb
     direction -0.707107 -6.34923e-011 0.707107   
     length 0.908121   
     axis -90 -45 -2.85299e-015   XYZ
    dof rx rz
    limits (-45.0 45.0)
           (-45.0 45.0)
  end
:hierarchy
  begin
    root lhipjoint rhipjoint lowerback
    lhipjoint lfemur
    lfemur ltibia
    ltibia lfoot
    lfoot ltoes
    rhipjoint rfemur
    rfemur rtibia
    rtibia rfoot
    rfoot rtoes
    lowerback upperback
    upperback thorax
    thorax lowerneck lclavicle rclavicle
    lowerneck upperneck
    upperneck head
    lclavicle lhumerus
    lhumerus lradius
    lradius lwrist
    lwrist lhand lthumb
    lhand lfingers
    rclavicle rhumerus
    rhumerus rradius
    rradius rwrist
    rwrist rhand rthumb
    rhand rfingers
  end

#!OML:ASF E:\Style6\Style6.ASF
:FULLY-SPECIFIED
:DEGREES
214
root 0.217288 18.0596 0.711171 10.2147 -3.25662 -3.26073
lowerback -0.166062 -0.976038 0.851958
upperback -4.87177 -1.14944 3.45463
thorax -4.8873 -0.529992 3.1503
lowerneck -8.74461 0.95567 4.87267
upperneck 11.3268 1.52141 -7.16905
head 4.92081 0.497715 -2.92664
rclavicle 2.60594e-015 -2.3059e-014
rhumerus 8.27673 -40.3159 13.3299
rradius 41.5072
rwrist 28.3118
rhand 10.4188 4.8816
rfingers 7.12502
rthumb 35.5235 -21.5506
lclavicle 2.60594e-015 -2.3059e-014
lhumerus -82.3922 -73.8056 88.6959
lradius 73.9457
lwrist 20.6248
lhand 4.45142 9.38594
lfingers 7.12502
lthumb 29.8466 37.0009
rfemur -15.519 4.56262 22.337
rtibia 19.9592
rfoot -8.81225 -11.5614
rtoes -9.65929
lfemur -17.4975 -1.6384 -14.4684
ltibia 26.2457
lfoot -11.408 8.05635
ltoes -22.3659
215
root 0.213728 18.0592 0.711149 10.2169 -3.34269 -3.24622
lowerback -0.136281 -0.973016 0.808239
upperback -4.86615 -1.14805 3.40217
thorax -4.89835 -0.528657 3.12068
lowerneck -8.78468 0.980096 4.93301
upperneck 11.3149 1.52368 -7.00797
head 4.92343 0.51101 -2.88578
rclavicle 7.30689e-015 3.4191e-014
rhumerus 8.38355 -40.9193 13.188
rradius 42.6225
rwrist 28.1475
rhand 11.1927 4.53651
rfingers 7.12502
rthumb 36.2567 -21.7165
lclavicle 7.30689e-015 3.4191e-014
lhumerus -84.5818 -73.5447 91.0522
lradius 74.671
lwrist 21.0448
lhand 4.58665 9.62185
lfingers 7.12502
lthumb 29.9756 37.2135
rfemur -15.5502 4.54001 22.3273
rtibia 19.97
rfoot -8.71263 -11.4954
rtoes -10.8407
lfemur -17.5147 -1.53272 -14.4843
ltibia 26.3037
lfoot -11.4077 8.0179
ltoes -22.5024
216
root 0.209652 18.0576 0.711273 10.2716 -3.42559 -3.27438
lowerback -0.22094 -0.989103 0.750874
upperback -4.88805 -1.1722 3.42258
thorax -4.87049 -0.538031 3.17364
lowerneck -8.6089 0.992627 4.86103
upperneck 11.2414 1.52972 -6.82034
head 4.86973 0.526374 -2.81386
rclavicle -4.53012e-015 -2.78299e-014
rhumerus 8.60556 -41.5342 12.8782
rradius 43.9357
rwrist 28.0504
rhand 12.0595 4.13723
rfingers 7.12502
rthumb 37.077 -21.9073
lclavicle -4.53012e-015 -2.78299e-014
lhumerus -87.1501 -73.1253 93.8743
lradius 75.5071
lwrist 21.5194
lhand 4.52079 9.77175
lfingers 7.12502
lthumb 29.9128 37.3748
rfemur -15.6453 4.51542 22.3641
rtibia 20.014
rfoot -8.67147 -11.4233
rtoes -11.0183
lfemur -17.5939 -1.39581 -14.4493
ltibia 26.3681
lfoot -11.4165 7.94418
ltoes -22.2578
217
root 0.205798 18.055 0.711694 10.3543 -3.47054 -3.34643
lowerback -0.289927 -1.01941 0.730513
upperback -4.95395 -1.21186 3.46275
thorax -4.89741 -0.555647 3.22851
lowerneck -8.38644 1.01637 4.82271
upperneck 11.1835 1.55506 -6.68203
head 4.81465 0.550028 -2.76201
rclavicle -2.04415e-015 -5.28767e-014
rhumerus 8.64587 -41.8719 12.6972
rradius 45.4884
rwrist 27.6436
rhand 13.0319 3.67316
rfingers 7.12502
rthumb 37.996 -22.1272
lclavicle -2.04415e-015 -5.28767e-014
lhumerus -89.8094 -72.6119 96.8392
lradius 76.3067
lwrist 21.6697
lhand 4.73937 9.55692
lfingers 7.12502
lthumb 30.1213 37.1221
rfemur -15.7698 4.45072 22.4543
rtibia 20.071
rfoot -8.61381 -11.3123
rtoes -11.1497
lfemur -17.7197 -1.26736 -14.3635
ltibia 26.4519
lfoot -11.505 7.86596
ltoes -21.9607
218
root 0.203507 18.0518 0.711546 10.3961 -3.5502 -3.34208
lowerback -0.248735 -1.00633 0.664798
upperback -5.02044 -1.19377 3.4428
thorax -4.99074 -0.543291 3.24677
lowerneck -8.29751 1.02241 4.79498
upperneck 11.1826 1.54638 -6.49148
head 4.79738 0.55789 -2.69837
rclavicle -1.84544e-014 -2.82274e-014
rhumerus 8.39407 -42.0775 12.7343
rradius 47.1744
rwrist 27.0175
rhand 14.1964 3.18132
rfingers 7.12502
rthumb 39.0947 -22.3115
lclavicle -1.84544e-014 -2.82274e-014
lhumerus -92.2791 -72.1517 99.6915
lradius 77.1272
lwrist 21.6875
lhand 5.08461 9.215
lfingers 7.12502
lthumb 30.4507 36.7197
rfemur -15.8687 4.38909 22.4486
rtibia 20.1353
rfoot -8.61743 -11.1567
rtoes -11.1425
lfemur -17.8104 -1.18055 -14.3727
ltibia 26.5496
lfoot -11.5535 7.85693
ltoes -21.7609
219
root 0.202354 18.0488 0.710572 10.423 -3.63113 -3.37709
lowerback -0.145731 -0.986088 0.642707
upperback -5.10185 -1.16253 3.43298
thorax -5.13658 -0.525446 3.25247
lowerneck -8.18256 1.01044 4.73776
upperneck 11.1713 1.51523 -6.2809
head 4.77091 0.555105 -2.62509
rclavicle -4.54875e-015 1.47101e-014
rhumerus 8.10968 -42.2214 12.7569
rradius 48.9526
rwrist 26.3224
rhand 15.4306 2.67978
rfingers 7.12502
rthumb 40.2568 -22.4683
lclavicle -4.54875e-015 1.47101e-014
lhumerus -94.8731 -71.6599 102.723
lradius 78.1043
lwrist 21.9421
lhand 5.53967 9.11731
lfingers 7.12502
lthumb 30.8846 36.5407
rfemur -15.9514 4.35014 22.4897
rtibia 20.2172
rfoot -8.61782 -11.0416
rtoes -11.6561
lfemur -17.8772 -1.07658 -14.344
ltibia 26.6495
lfoot -11.5545 7.86622
ltoes -21.9573
220
root 0.201152 18.046 0.711325 10.4595 -3.68715 -3.43684
lowerback -0.072172 -0.978621 0.664706
upperback -5.18287 -1.14833 3.41563
thorax -5.26543 -0.51839 3.22539
lowerneck -8.11238 1.02636 4.78188
upperneck 11.2325 1.52052 -6.1555
head 4.77765 0.568009 -2.59333
rclavicle -1.72384e-015 -3.57812e-015
rhumerus 7.73623 -42.2354 12.7876
rradius 50.8783
rwrist 25.7233
rhand 16.7047 2.16683
rfingers 7.12502
rthumb 41.4538 -22.6036
lclavicle -1.72384e-015 -3.57812e-015
lhumerus -97.7812 -71.1283 106.074
lradius 79.1955
lwrist 22.3596
lhand 5.8296 9.11464
lfingers 7.12502
lthumb 31.1609 36.4853
rfemur -16.0568 4.21576 22.5725
rtibia 20.3532
rfoot -8.5559 -10.9077
rtoes -12.319
lfemur -17.931 -0.969463 -14.2861
ltibia 26.7161
lfoot -11.6314 7.85058
ltoes -21.9296
221
root 0.199963 18.0429 0.712704 10.4756 -3.74166 -3.38165
lowerback -0.0340305 -0.97812 0.561409
upperback -5.22352 -1.14991 3.38539
thorax -5.3285 -0.514567 3.25403
lowerneck -8.10462 1.04193 4.78464
upperneck 11.2729 1.52851 -6.03788
head 4.78849 0.579182 -2.55679
rclavicle -1.13991e-015 3.97569e-015
rhumerus 7.23991 -42.1888 12.8983
rradius 52.9052
rwrist 25.2201
rhand 17.8827 1.77966
rfingers 7.12502
rthumb 42.5578 -22.6207
lclavicle -1.13991e-015 3.97569e-015
lhumerus -100.568 -70.5192 109.379
lradius 80.3784
lwrist 22.6619
lhand 5.68234 9.17736
lfingers 7.12502
lthumb 31.0206 36.5749
rfemur -16.1596 4.05028 22.5272
rtibia 20.5068
rfoot -8.52618 -10.7412
rtoes -12.7405
lfemur -17.9634 -0.860838 -14.3628
ltibia 26.7735
lfoot -11.7341 7.8122
ltoes -21.82
222
root 0.199921 18.0393 0.714132 10.4884 -3.80495 -3.27696
lowerback 0.0181983 -0.973639 0.416281
upperback -5.27068 -1.14791 3.33648
thorax -5.40624 -0.50725 3.28704
lowerneck -8.1575 1.04474 4.77712
upperneck 11.3988 1.51891 -5.89997
head 4.83464 0.58123 -2.51388
rclavicle 1.13463e-014 -2.62396e-014
rhumerus 6.62084 -41.99 13.1
rradius 55.0434
rwrist 24.8312
rhand 18.9948 1.52361
rfingers 7.12502
rthumb 43.5975 -22.5077
lclavicle 1.13463e-014 -2.62396e-014
lhumerus -103.132 -69.8469 112.519
lradius 81.5533
lwrist 22.7406
lhand 5.5201 8.93038
lfingers 7.12502
lthumb 30.8659 36.3573
rfemur -16.2664 3.93532 22.4096
rtibia 20.6494
rfoot -8.62273 -10.5841
rtoes -12.6275
lfemur -18.0083 -0.751163 -14.5035
ltibia 26.8382
lfoot -11.7402 7.83879
ltoes -22.3574
223
root 0.200256 18.0368 0.716297 10.5345 -3.86004 -3.2535
lowerback 0.0241093 -0.971798 0.349148
upperback -5.29866 -1.14743 3.32005
thorax -5.43818 -0.50392 3.30852
lowerneck -8.29896 1.05878 4.77085
upperneck 11.5365 1.52322 -5.77867
head 4.90041 0.587914 -2.47542
rclavicle -4.21796e-015 -5.96354e-015
rhumerus 5.9992 -41.7753 13.2912
rradius 57.2264
rwrist 24.6508
rhand 20.062 1.23155
rfingers 7.12502
rthumb 44.5929 -22.4266
lclavicle -4.21796e-015 -5.96354e-015
lhumerus -105.438 -69.1151 115.51
lradius 82.6566
lwrist 22.6862
lhand 5.31882 8.63771
lfingers 7.12502
lthumb 30.674 36.1008
rfemur -16.3988 3.83233 22.3754
rtibia 20.7852
rfoot -8.72299 -10.4042
rtoes -12.1645
lfemur -18.0835 -0.614061 -14.5504
ltibia 26.905
lfoot -11.7734 7.77183
ltoes -22.4459
224
root 0.200941 18.0332 0.719481 10.5549 -3.90802 -3.30623
lowerback 0.079476 -0.957465 0.368173
upperback -5.35169 -1.12506 3.31803
thorax -5.52755 -0.492593 3.2975
lowerneck -8.38086 1.06586 4.73881
upperneck 11.6723 1.52174 -5.64421
head 4.95495 0.592531 -2.42897
rclavicle 4.03781e-016 -2.82274e-014
rhumerus 5.36252 -41.4556 13.4566
rradius 59.4263
rwrist 24.5691
rhand 20.9448 0.965724
rfingers 7.12502
rthumb 45.4141 -22.3688
lclavicle 4.03781e-016 -2.82274e-014
lhumerus -107.528 -68.2734 118.412
lradius 83.6395
lwrist 22.5788
lhand 5.19805 8.33476
lfingers 7.12502
lthumb 30.5589 35.8194
rfemur -16.4708 3.74186 22.4301
rtibia 20.889
rfoot -8.77286 -10.1589
rtoes -10.9546
lfemur -18.1281 -0.481218 -14.5132
ltibia 26.9931
lfoot -11.8412 7.70987
ltoes -22.4569
225
root 0.201927 18.0299 0.721538 10.569 -3.94114 -3.31493
lowerback 0.166686 -0.951054 0.348992
upperback -5.41168 -1.11364 3.31595
thorax -5.64132 -0.484637 3.3094
lowerneck -8.3988 1.08156 4.69719
upperneck 11.7339 1.5389 -5.55677
head 4.97708 0.604175 -2.39394
rclavicle -8.3738e-015 -5.56597e-015
rhumerus 4.66903 -41.0782 13.6635
rradius 61.6449
rwrist 24.5317
rhand 21.4608 0.930908
rfingers 7.12502
rthumb 45.8934 -22.2079
lclavicle -8.3738e-015 -5.56597e-015
lhumerus -109.178 -67.3299 120.923
lradius 84.6012
lwrist 22.567
lhand 5.15456 8.05801
lfingers 7.12502
lthumb 30.5174 35.5503
rfemur -16.5339 3.61291 22.4405
rtibia 20.9721
rfoot -8.77396 -9.89514
rtoes -10.1152
lfemur -18.1904 -0.356271 -14.5237
ltibia 27.106
lfoot -11.8759 7.67368
ltoes -22.6984
226
root 0.203414 18.0253 0.724072 10.6183 -3.97425 -3.37339
lowerback 0.206595 -0.954184 0.339256
upperback -5.45931 -1.11355 3.37048
thorax -5.71379 -0.481729 3.37434
lowerneck -8.48984 1.10656 4.69658
upperneck 11.8057 1.57779 -5.60127
head 5.01704 0.61875 -2.40546
rclavicle -8.13154e-015 2.38542e-015
rhumerus 4.03234 -40.7506 13.8868
rradius 63.8729
rwrist 24.6866
rhand 21.9831 0.969159
rfingers 7.12502
rthumb 46.3778 -21.9664
lclavicle -8.13154e-015 2.38542e-015
lhumerus -110.378 -66.2988 123.056
lradius 85.6137
lwrist 22.6922
lhand 5.14803 7.93701
lfingers 7.12502
lthumb 30.5112 35.4305
rfemur -16.6447 3.48964 22.501
rtibia 21.0756
rfoot -8.83111 -9.79605
rtoes -10.3384
lfemur -18.2873 -0.253702 -14.4757
ltibia 27.2353
lfoot -11.9486 7.65027
ltoes -22.7615
227
root 0.204624 18.0205 0.726904 10.661 -4.02176 -3.38654
lowerback 0.208151 -0.960984 0.276579
upperback -5.49205 -1.12206 3.41246
thorax -5.74724 -0.481314 3.45502
lowerneck -8.51737 1.12856 4.68432
upperneck 11.8019 1.61348 -5.64236
head 5.02265 0.632647 -2.41378
rclavicle 2.12451e-015 1.59028e-015
rhumerus 3.41132 -40.4592 14.0573
rradius 66.0338
rwrist 25.3413
rhand 22.3485 1.10478
rfingers 7.12502
rthumb 46.7163 -21.6854
lclavicle 2.12451e-015 1.59028e-015
lhumerus -111.17 -65.2607 124.869
lradius 86.5485
lwrist 22.9899
lhand 5.31903 7.81512
lfingers 7.12502
lthumb 30.6742 35.2782
rfemur -16.7641 3.38577 22.5055
rtibia 21.209
rfoot -8.9522 -9.66444
rtoes -10.166
lfemur -18.3856 -0.162436 -14.4745
ltibia 27.3739
lfoot -12.0349 7.59456
ltoes -22.605
